<?xml version="1.0" standalone="no"?>
<!DOCTYPE svg PUBLIC "-//W3C//DTD SVG 1.1//EN" "http://www.w3.org/Graphics/SVG/1.1/DTD/svg11.dtd" >
<svg xmlns="http://www.w3.org/2000/svg">
<metadata>Generated by IcoMoon</metadata>
<defs>
<font id="sg" horiz-adv-x="1024">
<font-face units-per-em="1024" ascent="960" descent="-64" />
<missing-glyph horiz-adv-x="1024" />
<glyph unicode="&#x20;" horiz-adv-x="512" d="" />
<glyph unicode="&#xe900;" glyph-name="twitter" horiz-adv-x="1280" d="M1280 838.941c-47.027-20.793-97.734-34.498-150.682-40.721 54.227 32.057 95.738 82.78 115.488 143.113-50.707-29.536-107.008-51.275-166.675-62.774-47.987 50.251-116.211 81.441-191.712 81.441-145.005 0-262.415-115.782-262.415-258.422 0-20.164 2.239-39.854 6.719-58.836-218.186 10.791-411.658 113.734-541.145 270.158-22.474-38.043-35.511-82.623-35.511-129.881 0-89.711 46.229-168.868 116.691-215.102-43.029 1.26-83.499 13.075-119.010 32.214v-3.229c0-125.312 90.457-229.91 210.667-253.539-21.994-5.907-45.268-9.137-69.262-9.137-16.956 0-33.272 1.654-49.508 4.568 33.512-102.552 130.447-177.451 245.219-179.582-89.978-69.466-202.989-110.739-326.158-110.739-21.275 0-41.99 1.184-62.704 3.699 116.451-73.562 254.417-116.173 402.62-116.173 482.84 0 747.096 394.052 747.096 735.727 0 11.342-0.243 22.369-0.723 33.475 51.27 36.152 95.738 81.756 130.931 133.661l0.077 0.079z" />
<glyph unicode="&#xe901;" glyph-name="linkedin" d="M121.747 960c67.122 0 121.63-55.221 121.63-123.262 0-68.081-54.508-123.302-121.63-123.302-67.397 0-121.747 55.221-121.747 123.302 0 68.041 54.35 123.262 121.747 123.262zM16.701-64h210.012v683.994h-210.012v-683.994zM369.756 619.994h201.13v-93.521h2.867c27.982 53.788 96.482 110.482 198.581 110.482 212.41 0 251.667-141.616 251.667-325.831v-375.124h-209.737v332.638c0 79.311-1.417 181.353-109.094 181.353-109.169 0-125.833-86.433-125.833-175.699v-338.292h-209.58v683.994z" />
<glyph unicode="&#xe902;" glyph-name="animal-feed" horiz-adv-x="1067" d="M640.417 874.667c-39.439-2.998-43.69-56.929-37.583-86.917 4.187-19.277 14.97-37.457 29.5-51.667-5.376-6.921-9.954-14.404-13.667-22.333-47.638 1.186-95.576 0.096-143.25 0.917h-283c-107.085 0.966-185.674-102.969-191.167-203.417-1.807-157.194-0.491-314.444-0.667-471.667 1.25-31.921 50.363-39.671 61.25-9.583 5.9 34.785 0.972 71.054 2.583 106.417 0.422 123.182-0.835 246.43 0.667 369.583 4.188 70.557 57.138 150.382 135.333 144.667 131.953 0.355 263.989-0.261 395.917 0.5-4.046-4.394-8.187-8.687-12.667-12.167-16.375-18.819-50.237-37.513-35.667-67 11.318-23.765 45.458-21.138 58.583-0.417 5.353 5.824 11.262 11.222 17 16.75 11.287-51.953 22.036-104.040 36.25-155.167 19.077-50.418 74.684-73.090 125.417-67.75 59.014-4.721 111.248 43.983 117.167 101.5 9.335 44.991 19.788 89.807 29.417 134.75 14.645-14.956 29.465-29.775 45.333-43.25 27.229-16.779 60.971 19.797 42.083 45.583-24.597 25.528-49.565 51.149-75.5 75.417-1.494 17.806-7.388 34.562-17.167 49.083 27.353 21.428 45.854 53.309 41.583 89.833-2.554 22.618-10.667 55.986-39.167 56.333-27.585 1.433-41.552-33.136-26-54.083 7.842-24.567-9.737-39.245-28.917-49.583-16.454 6.719-34.318 9.932-52.5 7.667h-103.5c-10.785 0.384-21.025-1.531-30.917-4.5-23.858 13.232-26.282 43.908-14.75 68.5 0.39 17.165-14.835 32.424-32 32zM781.667 714.833c21.202 0.118 42.377-0.050 63.5-1.333 4.201-0.908 7.69-2.396 11-4 1.197-0.925 2.665-1.439 4-2.167 25.083-15.796 21.065-52.905 12.417-79.583-13.061-56.701-24.361-113.837-38.5-170.25-14.368-35.064-58.005-29.827-88.333-25.5-36.404 14.622-31.632 59.16-41.917 90.667-10.149 48.966-23.16 97.391-31.417 146.667-0.242 17.838 11.466 34.021 27.25 41.25 0.623 0.277 1.241 0.514 1.833 0.833 5.23 2.11 10.786 3.382 16.583 3.25 21.176-0.34 42.382 0.048 63.583 0.167zM513.75 331.333c-6.668 0.445-13.407 0.233-20.083-0.667h-269.25c-56.066 1.895-98.674-51.895-95.75-105.667 0.339-63.794-1.924-127.911 1.083-191.5 7.386-31.12 57.034-29.174 61.917 2.417 1.509 34.225 0.854 68.66 0.583 103 21.452-0.323 42.88-0.116 64.333 0.167-0.828-22.512-4.981-47.447 16.417-60.417 23.567-14.166 53.098 10.116 47.417 36-1.022 9.302-0.432 19.096 0.083 28.833 17.030 4.559 32.611 11.91 46.583 21.917 8.307-17.71 16.686-35.38 28.333-50.833 22.83-22.367 63.711 5.773 51.083 35.083-11.495 21.392-20.998 44.197-32.5 65.667 10.366 15.895 18.704 33.076 24.917 50.833 26.692-0.064 53.411 0.289 80.083-0.167 34.614-8.171 23.653-48.098 25.417-74.167 0.882-52.731-1.79-105.815 1.333-158.333 7.386-31.12 57.034-29.174 61.917 2.417 1.351 69.389 0.915 139.052 0.25 208.5-3.697 48.999-47.49 83.804-94.167 86.917zM704.417 298.667c-25.334 0.712-35.917-26.692-32-48.083 0.401-71.354-0.821-142.791 0.583-214.083 4.338-31.67 53.995-34.572 61.917-3.583 3.528 58.31 0.491 117.352 1.5 175.917-2.33 24.976 5.366 52.090-5.25 75.417-5.762 8.884-16.161 14.493-26.75 14.417zM239.417 266.833c6.995-0.259 13.896-0.644 19.833-0.167 36.742-0.179 73.495-0.34 110.25-0.25-14.486-32.049-42.853-61.618-78.583-64.333 0 0-0.083 0-0.083 0-0.836 0.065-1.577 0.588-2.417 0.583-1.193 0.034-2.206-0.246-3.333-0.333-3.334 0.018-6.639-0.173-10.083 0.333-27.251-0.571-54.545-0.147-81.833-0.333 0.475 12.743 0.898 25.466 2.083 38.167 1.108 26.887 23.18 27.11 44.167 26.333z" />
<glyph unicode="&#xe903;" glyph-name="supply-and-demand" horiz-adv-x="945" d="M886.114-27.368h-856.614v59.077h856.614v-59.077zM118.115 182.154v-101.218h-59.077v111.852c0 27.88 23.19 48.443 49.231 48.443h108.347c26.042 0 49.231-20.563 49.231-48.443v-111.852h-59.077v101.218h-88.655zM413.499 522.437v-441.502h-59.076v452.135c0 27.88 23.19 48.445 49.23 48.445h108.347c26.041 0 49.231-20.565 49.231-48.445v-452.135h-59.077v441.502h-88.655zM292.404 747.441c11.292-11.774 10.901-30.473-0.873-41.765l-158.208-151.728c-11.774-11.292-30.473-10.902-41.765 0.874-11.292 11.772-10.901 30.471 0.873 41.763l158.208 151.728c11.774 11.292 30.473 10.901 41.765-0.873zM350.94 736.080c4.057 15.801 20.155 25.322 35.956 21.265l184.083-47.262c15.801-4.057 25.324-20.155 21.268-35.956s-20.157-25.322-35.958-21.265l-184.083 47.262c-15.802 4.057-25.322 20.155-21.265 35.956zM826.758 829.118c9.791-13.047 7.156-31.563-5.892-41.356l-141.036-105.866c-13.048-9.793-31.563-7.156-41.358 5.891-9.791 13.047-7.156 31.563 5.892 41.356l141.036 105.866c13.048 9.793 31.563 7.156 41.358-5.891zM236.269 750.438c0 48.761 40.823 86.252 88.615 86.252s88.615-37.492 88.615-86.252c0-48.761-40.822-86.252-88.615-86.252s-88.615 37.491-88.615 86.252zM324.884 777.613c-17.462 0-29.538-13.292-29.538-27.175s12.077-27.175 29.538-27.175c17.462 0 29.538 13.292 29.538 27.175s-12.077 27.175-29.538 27.175zM768 835.546c0 48.761 40.822 86.252 88.615 86.252s88.615-37.492 88.615-86.252c0-48.761-40.822-86.252-88.615-86.252s-88.615 37.491-88.615 86.252zM856.615 862.721c-17.459 0-29.538-13.292-29.538-27.175s12.079-27.175 29.538-27.175c17.463 0 29.538 13.292 29.538 27.175s-12.075 27.175-29.538 27.175zM531.692 665.404c0 48.761 40.822 86.252 88.615 86.252s88.615-37.491 88.615-86.252c0-48.761-40.822-86.252-88.615-86.252s-88.615 37.492-88.615 86.252zM620.308 692.579c-17.459 0-29.538-13.292-29.538-27.175s12.079-27.175 29.538-27.175c17.463 0 29.538 13.292 29.538 27.175s-12.075 27.175-29.538 27.175zM-0.038 523.583c0 48.759 40.822 86.251 88.615 86.251s88.615-37.492 88.615-86.251c0-48.762-40.823-86.252-88.615-86.252s-88.615 37.49-88.615 86.252zM88.577 550.758c-17.462 0-29.538-13.292-29.538-27.175s12.077-27.175 29.538-27.175c17.462 0 29.538 13.292 29.538 27.175s-12.077 27.175-29.538 27.175zM708.923 329.846v-248.911h-59.077v259.545c0 27.88 23.19 48.443 49.231 48.443h108.347c26.041 0 49.231-20.563 49.231-48.443v-259.545h-59.077v248.911h-88.655z" />
<glyph unicode="&#xe904;" glyph-name="reports" horiz-adv-x="1067" d="M929.126 406.626c12.497-12.497 12.497-32.755 0-45.252l-169.335-169.34c-12.002-12.011-28.288-18.756-45.269-18.756-16.977 0-33.259 6.746-45.261 18.752-0.004 0 0-0.004 0 0l-82.731 82.731-169.403-169.387c-12.497-12.497-32.758-12.497-45.255 0s-12.497 32.755 0 45.252l169.38 169.382c0 0-0.004-0.004 0 0 12.002 12.006 28.292 18.756 45.269 18.756s33.259-6.746 45.261-18.752c0.004 0 0 0.004 0 0l82.731-82.731 169.361 169.344c12.497 12.497 32.755 12.497 45.252 0zM42.5 864c0 53.019 42.981 96 96 96h832c53.018 0 96-42.981 96-96v-832c0-53.018-42.982-96-96-96h-832c-53.019 0-96 42.982-96 96v832zM138.5 896c-17.673 0-32-14.327-32-32v-832c0-17.673 14.327-32 32-32h832c17.673 0 32 14.327 32 32v832c0 17.673-14.327 32-32 32h-832zM170.5 608c0 123.712 100.288 224 224 224s224-100.288 224-224c0-123.712-100.288-224-224-224s-224 100.288-224 224zM394.5 768c-88.365 0-160-71.634-160-160s71.635-160 160-160c88.367 0 160 71.633 160 160s-71.633 160-160 160zM394.5 832c17.673 0 32-14.327 32-32v-178.745l126.392-126.394c12.497-12.497 12.497-32.755 0-45.252s-32.755-12.497-45.252 0l-135.767 135.764c-6.001 6.001-9.373 14.141-9.373 22.627v192c0 17.673 14.327 32 32 32zM714.5 736c0 17.673 14.327 32 32 32h128c17.673 0 32-14.327 32-32s-14.327-32-32-32h-128c-17.673 0-32 14.327-32 32zM714.5 608c0 17.673 14.327 32 32 32h128c17.673 0 32-14.327 32-32s-14.327-32-32-32h-128c-17.673 0-32 14.327-32 32z" />
<glyph unicode="&#xe905;" glyph-name="eu-trade" d="M512 832c-17.673 0-32-14.327-32-32v-32h64v32c0 17.673-14.327 32-32 32zM416 800c0 53.019 42.982 96 96 96s96-42.981 96-96v-64c0-17.673-14.327-32-32-32h-128c-17.673 0-32 14.327-32 32v64zM512 960c17.673 0 32-14.327 32-32v-64c0-17.673-14.327-32-32-32s-32 14.327-32 32v64c0 17.673 14.327 32 32 32zM455.804 767.036c17.139-4.311 27.541-21.699 23.228-38.839-65.271-259.517-174.497-505.793-322.806-728.193h102.31c17.933 111.778 128.537 192 253.464 192s235.533-80.222 253.466-192h102.31c-148.309 222.4-257.536 468.676-322.807 728.193-4.314 17.139 6.089 34.528 23.228 38.839s34.526-6.089 38.835-23.228c68.079-270.673 185.314-526.533 345.865-754.838 0.917-1.301 1.732-2.671 2.445-4.096l1.28-2.56c4.962-9.92 4.429-21.7-1.399-31.134-5.833-9.434-16.132-15.177-27.221-15.177h-192c-17.673 0-32 14.327-32 32 0 83.9-81.178 160-192 160-110.824 0-192-76.1-192-160 0-17.673-14.327-32-32-32h-192c-11.090 0-21.39 5.743-27.221 15.177s-6.361 21.214-1.401 31.134l1.28 2.56c0.712 1.425 1.53 2.795 2.446 4.096 160.55 228.305 277.783 484.164 345.862 754.838 4.311 17.139 21.698 27.539 38.837 23.228zM160 288c0 17.673 14.327 32 32 32h640c17.673 0 32-14.327 32-32s-14.327-32-32-32h-640c-17.673 0-32 14.327-32 32zM288 544c0 17.673 14.327 32 32 32h384c17.673 0 32-14.327 32-32s-14.327-32-32-32h-384c-17.673 0-32 14.327-32 32z" />
<glyph unicode="&#xe906;" glyph-name="home" d="M298.669 21.333c-70.692 0-128 57.306-128 128v256h-42.667c-38.012 0-57.048 45.956-30.17 72.836l383.998 384c16.666 16.662 43.678 16.662 60.343 0l384-384c26.876-26.88 7.842-72.836-30.17-72.836h-42.667v-256c0-70.694-57.31-128-128-128h-426.669zM512.004 771.66l-283.697-283.695c16.179-6.063 27.695-21.67 27.695-39.966v-298.667c0-23.565 19.103-42.667 42.667-42.667l85.333 0.043v170.624c0 47.13 38.205 85.333 85.335 85.333h85.333c47.125 0 85.333-38.204 85.333-85.333l-0.004-170.624 85.338-0.043c23.561 0 42.667 19.102 42.667 42.667v298.667c0 18.295 11.516 33.903 27.691 39.966l-283.691 283.695zM554.671 277.333h-85.333l-0.004-170.624h85.333l0.004 170.624z" />
<glyph unicode="&#xe907;" glyph-name="news" d="M469.316 277.333h-256.002c-32.93 0-53.447 35.721-36.855 64.166l298.668 511.999c21.943 37.619 79.522 22.053 79.522-21.498v-213.333h256c32.926 0 53.444-35.721 36.851-64.165l-298.667-512.002c-21.943-37.615-79.518-22.050-79.518 21.5v213.333zM469.316 674.18l-181.718-311.513h224.384c23.561 0 42.667-19.102 42.667-42.667v-98.18l181.713 311.514h-224.38c-23.565 0-42.667 19.103-42.667 42.667v98.179z" />
<glyph unicode="&#xe908;" glyph-name="about" d="M383.958 544c0 70.692 57.309 128 127.999 128 70.694 0 128-57.308 128-128 0-70.694-57.306-128-128-128-70.69 0-127.999 57.306-127.999 128zM511.957 608c-35.345 0-64-28.654-64-64s28.655-64 64-64c35.349 0 64 28.655 64 64s-28.651 64-64 64zM510.699 447.974c0.845 0.034 1.69 0.034 2.534 0 89.634-3.546 166.511-65.050 189.649-151.723 4.561-17.075-5.585-34.611-22.66-39.168-17.075-4.561-34.615 5.589-39.172 22.665-15.795 59.157-68.019 101.257-129.084 104.222-61.065-2.965-113.289-45.065-129.082-104.222-4.558-17.075-22.096-27.226-39.171-22.665-17.075 4.557-27.222 22.093-22.663 39.168 23.137 86.673 100.016 148.177 189.649 151.723zM399.958 848c0 61.856 50.145 112 111.999 112 61.858 0 112-50.144 112-112s-50.142-112-112-112c-61.854 0-111.999 50.144-111.999 112zM511.957 896c-26.509 0-48-21.49-48-48s21.491-48 48-48c26.509 0 48 21.49 48 48s-21.491 48-48 48zM799.957 448c0 61.854 50.146 112 112 112 61.858 0 112-50.146 112-112s-50.142-112-112-112c-61.854 0-112 50.146-112 112zM911.957 496c-26.509 0-48-21.491-48-48s21.491-48 48-48c26.509 0 48 21.491 48 48s-21.491 48-48 48zM399.958 48c0 61.854 50.145 112 111.999 112 61.858 0 112-50.146 112-112s-50.142-112-112-112c-61.854 0-111.999 50.146-111.999 112zM511.957 96c-26.509 0-48-21.491-48-48s21.491-48 48-48c26.509 0 48 21.491 48 48s-21.491 48-48 48zM-0.042 448c0 61.854 50.144 112 112 112s112-50.146 112-112c0-61.854-50.144-112-112-112s-112 50.146-112 112zM111.958 496c-26.51 0-48-21.491-48-48s21.49-48 48-48c26.51 0 48 21.491 48 48s-21.49 48-48 48zM676.305 796.817c8.849 15.299 28.42 20.528 43.721 11.68 63.296-36.606 115.874-89.185 152.482-152.48 8.845-15.299 3.618-34.874-11.682-43.721s-34.871-3.619-43.721 11.68c-30.997 53.598-75.524 98.121-129.122 129.12-15.296 8.848-20.527 28.423-11.678 43.721zM860.826 283.708c15.3-8.849 20.527-28.425 11.682-43.725-36.608-63.292-89.186-115.874-152.482-152.478-15.3-8.849-34.871-3.618-43.721 11.678-8.849 15.3-3.618 34.876 11.678 43.725 53.598 30.997 98.125 75.52 129.122 129.118 8.849 15.3 28.42 20.527 43.721 11.682zM163.193 283.708c15.299 8.845 34.874 3.618 43.722-11.682 30.998-53.598 75.522-98.121 129.12-129.118 15.299-8.849 20.528-28.425 11.68-43.725-8.848-15.296-28.423-20.527-43.722-11.678-63.295 36.604-115.873 89.186-152.48 152.478-8.848 15.3-3.619 34.876 11.68 43.725zM347.715 796.817c8.848-15.299 3.619-34.874-11.68-43.721-53.598-30.999-98.122-75.522-129.12-129.12-8.848-15.299-28.423-20.528-43.722-11.68s-20.528 28.423-11.68 43.721c36.607 63.295 89.185 115.874 152.48 152.48 15.299 8.848 34.874 3.619 43.722-11.68z" />
<glyph unicode="&#xe909;" glyph-name="business" d="M897.139 354.155c3.315-17.357-8.068-34.121-25.425-37.436l-220.16-42.069c-17.361-3.315-34.121 8.068-37.44 25.425-3.315 17.361 8.068 34.121 25.429 37.436l220.16 42.069c17.357 3.319 34.116-8.064 37.436-25.425zM641.446 687.345c-17.651 6.467-37.197 5.333-53.986-3.133l-143.262-72.038c-0.013-0.006 0.009 0.006 0 0-8.478-4.317-12.049-14.592-8.030-23.218l0.051-0.108c3.644-7.892 12.621-11.799 20.877-9.085 0.004 0.001-0.004-0.001 0 0l147.942 48.887c16.781 5.545 34.88-3.563 40.422-20.343 5.547-16.781-3.563-34.88-20.343-40.425l-147.968-48.894c-39.13-12.885-81.73 5.602-99.016 42.989-18.569 39.923-2.144 87.385 37.139 107.288l0.087 0.044 143.284 72.047c0.004 0.003-0.004-0.003 0 0 32.585 16.427 70.537 18.637 104.806 6.089 0.004-0.002-0.009 0.002 0 0l212.181-77.611c16.597-6.071 25.131-24.448 19.059-41.045s-24.448-25.131-41.045-19.060l-212.198 77.616zM533.679 603.1c13.935 10.873 34.044 8.394 44.915-5.539l134.319-172.111c21.474-28.672 24.917-67.012 8.896-99.051-15.113-30.225-45.103-49.954-78.524-52.117-6.98-21.406-20.915-40.23-40.060-53.188-18.018-12.194-39.151-18.172-60.314-17.604-4.924-31.548-26.513-58.509-57.105-69.875-34.863-12.949-74.092-2.927-98.468 25.135l-140.145 157.065h-89.986c-17.673 0-32 14.327-32 32s14.327 32 32 32h104.32c9.119 0 17.806-3.891 23.877-10.697l150.2-168.329c6.891-7.991 18.022-10.854 27.913-7.181 9.894 3.678 16.457 13.111 16.465 23.663v26.223c0 10.62 5.265 20.544 14.059 26.5 8.794 5.952 19.964 7.155 29.824 3.213l7.467-2.987c0 0 0 0 0 0 11.908-4.762 25.404-3.311 36.023 3.878 10.62 7.185 16.986 19.174 16.99 32 0.004 17.668 14.332 31.987 32 31.987h20.843c11.593 0.009 22.191 6.562 27.379 16.934 5.146 10.295 4.087 22.596-2.726 31.855l-133.7 171.31c-10.871 13.932-8.393 34.041 5.538 44.915zM383.158 713.771l-45.16-8.745c14.354 5.781 29.685 8.75 45.16 8.745zM337.998 705.025c-0.016-0.006-0.032-0.013-0.047-0.019l0.047 0.019zM337.951 705.006l-189.824-75.913c-16.41-6.562-24.392-25.185-17.83-41.594s25.185-24.392 41.594-17.83l189.994 75.981c6.756 2.725 13.974 4.124 21.259 4.121h0.009c12.029-0.001 23.749-3.768 33.52-10.762l14.525-11.971c13.641-11.239 33.809-9.293 45.047 4.346s9.293 33.807-4.343 45.046l-15.279 12.587c-0.448 0.37-0.905 0.727-1.374 1.072-20.885 15.38-46.144 23.679-72.082 23.683zM128 631.912c-0.462 4.722-4.54 8.31-9.334 8.111-0.444-0.018-0.888-0.028-1.332-0.028h-85.333c-17.673 0-32 14.327-32 32s14.327 32 32 32h84.76c39.828 1.254 73.37-29.713 75.206-69.612 0.023-0.49 0.034-0.98 0.034-1.471v-273.791c0-0.491-0.011-0.981-0.034-1.472-1.836-39.898-35.36-70.878-75.192-69.653h-84.774c-17.673 0-32 14.327-32 32s14.327 32 32 32h85.333c0.433 0 0.865-0.009 1.298-0.026 4.814-0.196 8.906 3.409 9.369 8.149v271.792zM896 631.912v-271.792c0.465-4.74 4.553-8.346 9.37-8.149 0.431 0.017 0.866 0.026 1.297 0.026h85.333c17.673 0 32-14.327 32-32s-14.327-32-32-32h-84.774c-39.829-1.225-73.357 29.756-75.191 69.653-0.021 0.491-0.034 0.981-0.034 1.472v273.791c0 0.491 0.013 0.981 0.034 1.471 1.835 39.899 35.379 70.865 75.204 69.612h84.762c17.673 0 32-14.327 32-32s-14.327-32-32-32h-85.333c-0.444 0-0.887 0.009-1.331 0.028-4.796 0.2-8.875-3.389-9.335-8.111zM447.663 307.844c12.497 12.497 32.759 12.497 45.257 0l41.728-41.728c12.497-12.493 12.497-32.755 0-45.252s-32.759-12.497-45.257 0l-41.728 41.728c-12.497 12.497-12.497 32.759 0 45.252zM531.081 391.347c12.497 12.497 32.759 12.497 45.257 0l62.635-62.635c12.497-12.497 12.497-32.759 0-45.257s-32.759-12.497-45.257 0l-62.635 62.635c-12.497 12.497-12.497 32.759 0 45.257z" />
<glyph unicode="&#xe90a;" glyph-name="crops" horiz-adv-x="983" d="M245.76 919.61c16.966 0 30.72-13.754 30.72-30.72v-921.601c0-16.966-13.754-30.72-30.72-30.72s-30.72 13.754-30.72 30.72v921.601c0 16.966 13.754 30.72 30.72 30.72zM50.056 210.862c15.756 6.291 33.63-1.38 39.922-17.138 25.307-63.382 87.095-104.571 155.333-103.555 0.305 0.004 0.61 0.004 0.915 0 68.237-1.016 130.026 40.174 155.333 103.555 6.291 15.757 24.164 23.429 39.921 17.138s23.429-24.166 17.138-39.924c-34.693-86.893-119.325-143.413-212.849-142.209-93.524-1.204-178.154 55.316-212.85 142.209-6.291 15.757 1.381 33.632 17.138 39.924zM50.056 425.902c15.756 6.291 33.63-1.38 39.922-17.138 25.307-63.382 87.095-104.571 155.333-103.555 0.305 0.004 0.61 0.004 0.915 0 68.237-1.016 130.026 40.174 155.333 103.555 6.291 15.757 24.164 23.429 39.921 17.138s23.429-24.166 17.138-39.924c-34.693-86.893-119.325-143.413-212.849-142.209-93.524-1.204-178.154 55.316-212.85 142.209-6.291 15.757 1.381 33.632 17.138 39.924zM50.056 640.942c15.756 6.291 33.63-1.382 39.922-17.138 25.307-63.379 87.095-104.57 155.333-103.554 0.305 0.004 0.61 0.004 0.915 0 68.237-1.016 130.026 40.175 155.333 103.554 6.291 15.756 24.164 23.43 39.921 17.138s23.429-24.165 17.138-39.922c-34.693-86.894-119.325-143.415-212.849-142.211-93.524-1.204-178.154 55.316-212.85 142.211-6.291 15.756 1.381 33.63 17.138 39.922zM50.056 855.982c15.756 6.291 33.63-1.382 39.922-17.138 25.307-63.379 87.095-104.571 155.333-103.555 0.305 0.005 0.61 0.005 0.915 0 68.237-1.016 130.026 40.176 155.333 103.555 6.291 15.756 24.164 23.43 39.921 17.138s23.429-24.165 17.138-39.922c-34.693-86.892-119.325-143.416-212.849-142.211-93.524-1.205-178.154 55.319-212.85 142.211-6.291 15.756 1.381 33.63 17.138 39.922zM737.28 919.61c16.966 0 30.72-13.754 30.72-30.72v-921.601c0-16.966-13.754-30.72-30.72-30.72s-30.72 13.754-30.72 30.72v921.601c0 16.966 13.754 30.72 30.72 30.72zM541.151 210.69c15.663 6.525 33.649-0.881 40.174-16.544 26.235-62.96 87.753-103.973 155.963-103.973s129.729 41.013 155.963 103.973c6.525 15.663 24.51 23.069 40.174 16.544 15.659-6.525 23.065-24.51 16.54-40.174-35.774-85.856-119.665-141.783-212.677-141.783s-176.902 55.927-212.677 141.783c-6.525 15.663 0.881 33.649 16.54 40.174zM541.151 425.73c15.663 6.525 33.649-0.881 40.174-16.544 26.235-62.96 87.753-103.973 155.963-103.973s129.729 41.013 155.963 103.973c6.525 15.663 24.51 23.069 40.174 16.544 15.659-6.525 23.065-24.51 16.54-40.174-35.774-85.856-119.665-141.783-212.677-141.783s-176.902 55.927-212.677 141.783c-6.525 15.663 0.881 33.649 16.54 40.174zM541.151 640.769c15.663 6.526 33.649-0.88 40.174-16.541 26.235-62.962 87.753-103.974 155.963-103.974s129.729 41.012 155.963 103.974c6.525 15.661 24.51 23.067 40.174 16.541 15.659-6.525 23.065-24.511 16.54-40.172-35.774-85.856-119.665-141.783-212.677-141.783s-176.902 55.927-212.677 141.783c-6.525 15.661 0.881 33.647 16.54 40.172zM541.151 855.809c15.663 6.526 33.649-0.88 40.174-16.541 26.235-62.962 87.753-103.976 155.963-103.976s129.729 41.013 155.963 103.976c6.525 15.661 24.51 23.067 40.174 16.541 15.659-6.525 23.065-24.511 16.54-40.172-35.774-85.858-119.665-141.785-212.677-141.785s-176.902 55.927-212.677 141.785c-6.525 15.661 0.881 33.647 16.54 40.172z" />
<glyph unicode="&#xe90b;" glyph-name="biofuels" d="M501.333 885.038c-35.354-54.667-99.797-159.239-155.303-275.512-56.118-117.558-100.697-242.247-100.697-338.46 0-141.385 114.615-256 256-256s256 114.615 256 256c0 96.213-44.578 220.902-100.698 338.46-55.505 116.273-119.949 220.846-155.302 275.512zM447.629 919.847c11.725 18.299 31.966 29.371 53.705 29.371 21.743 0 41.984-11.073 53.709-29.375 36.092-55.806 102.174-162.97 159.351-282.747 56.627-118.625 106.94-254.458 106.94-366.032 0-176.73-143.27-320-320-320s-320 143.27-320 320c0 111.573 50.312 247.407 106.941 366.032 57.179 119.779 123.26 226.945 159.355 282.75zM341.359 303.061c17.673-0.013 31.988-14.353 31.974-32.026-0.027-33.963 13.446-66.547 37.454-90.573 24.007-24.030 56.579-37.53 90.546-37.53 17.673 0 32-14.327 32-32s-14.327-32-32-32c-50.948 0-99.808 20.25-135.819 56.29s-56.222 84.915-56.181 135.863c0.014 17.673 14.353 31.991 32.026 31.974z" />
<glyph unicode="&#xe90c;" glyph-name="data-modules" horiz-adv-x="983" d="M12.602 727.988c7.959 5.812 18.222 7.453 27.597 4.413l396.492-128.614c12.665-4.108 21.242-15.907 21.242-29.221v-564.018c0-9.961-4.829-19.309-12.96-25.068-8.126-5.759-18.543-7.217-27.943-3.916l-394.036 138.445c-12.256 4.305-20.479 15.856-20.536 28.844l-2.458 554.191c-0.044 9.855 4.643 19.132 12.602 24.945zM61.628 660.858l2.173-490.067 332.691-116.892v498.335l-334.865 108.623zM970.547 724.223c7.856-5.791 12.493-14.97 12.493-24.73v-552.14c0-13.013-8.196-24.613-20.46-28.959l-396.493-140.493c-9.404-3.33-19.841-1.888-27.988 3.871-8.147 5.755-12.993 15.11-12.993 25.088v569.752c0 13.464 8.765 25.358 21.627 29.343l396.493 122.88c9.322 2.889 19.464 1.177 27.32-4.614zM586.547 553.973v-503.637l335.053 118.723v488.753l-335.053-103.839zM483.025 958.093c5.403 1.477 11.108 1.449 16.495-0.083l422.298-120.013c13.255-3.766 22.381-15.896 22.323-29.674s-9.277-25.833-22.561-29.492l-422.298-116.326-8.159 29.617-8.663-29.473-416.565 122.47c-13.18 3.875-22.185 16.029-22.053 29.766s9.367 25.717 22.618 29.339l416.565 113.869zM491.397 724.061l308.023 84.848-308.457 87.66-303.833-83.053 304.267-89.455z" />
<glyph unicode="&#xe90d;" glyph-name="arrow-top" horiz-adv-x="1877" d="M188.225 883.895c-42.3-44.585-42.3-116.873 0-161.457l673.908-710.332c42.3-44.585 110.879-44.585 153.178 0l673.908 710.332c42.296 44.585 42.296 116.872 0 161.457-42.298 44.585-110.879 44.585-153.178 0l-597.318-629.603-597.32 629.603c-42.3 44.585-110.88 44.585-153.178 0z" />
<glyph unicode="&#xe90e;" glyph-name="user" horiz-adv-x="853" d="M170.667 704c0 141.385 114.615 256 256 256s256-114.615 256-256c0-141.385-114.615-256-256-256s-256 114.615-256 256zM426.667 878.080c-96.142 0-174.080-77.938-174.080-174.080s77.938-174.080 174.080-174.080c96.141 0 174.080 77.938 174.080 174.080s-77.939 174.080-174.080 174.080zM265.62 867.171c12.516 10.247 32.459 9.951 44.544-0.661 74.082-65.049 187.905-84.446 285.881-48.719 15.979 5.829 34.509-0.432 41.382-13.983 6.878-13.551-0.508-29.261-16.491-35.089-122.035-44.504-263.818-20.342-356.096 60.684-12.085 10.612-11.736 27.521 0.78 37.768zM426.667 325.449c-191.801 0-347.287-156.48-347.287-349.504 0-22.063-17.77-39.945-39.69-39.945s-39.69 17.882-39.69 39.945c0 237.146 191.025 429.389 426.667 429.389 235.639 0 426.667-192.243 426.667-429.389 0-22.063-17.771-39.945-39.689-39.945-21.922 0-39.693 17.882-39.693 39.945 0 193.024-155.486 349.504-347.285 349.504z" />
<glyph unicode="&#xe90f;" glyph-name="my-account" d="M192.287 896.042c3.233 35.881 33.389 64 70.113 64h243.2c36.723 0 66.88-28.118 70.114-64h96.286c53.018 0 96-42.981 96-96 0-17.673-14.327-32-32-32s-32 14.327-32 32c0 17.673-14.327 32-32 32h-96.286c-3.234-35.882-33.391-64-70.114-64h-243.2c-36.724 0-66.88 28.118-70.113 64h-96.287c-17.673 0-32-14.327-32-32v-767.999c0-17.673 14.327-32 32-32h576c17.673 0 32 14.327 32 32v128c0 17.673 14.327 32 32 32s32-14.327 32-32v-128c0-53.022-42.982-96-96-96h-576c-53.019 0-96 42.978-96 96v767.999c0 53.019 42.981 96 96 96h96.287zM256 838.442c0-3.535 2.865-6.4 6.4-6.4h243.2c3.533 0 6.4 2.865 6.4 6.4v51.2c0 3.535-2.867 6.4-6.4 6.4h-243.2c-3.535 0-6.4-2.865-6.4-6.4v-51.2zM941.257 685.297c-24.994 24.994-65.519 24.994-90.513 0l-399.753-399.755-15.074-105.583 105.587 15.074 399.753 399.753c24.994 24.994 24.994 65.517 0 90.511zM805.491 730.552c49.984 49.987 131.034 49.987 181.018 0 49.988-49.987 49.988-131.033 0-181.020l-407.296-407.294c-4.894-4.898-11.247-8.073-18.103-9.054l-158.378-22.613c-9.97-1.425-20.029 1.929-27.151 9.050-7.121 7.125-10.475 17.182-9.051 27.153l22.613 158.379c0.979 6.857 4.155 13.205 9.051 18.103l407.297 407.296zM192 608.042c0 17.673 14.327 32 32 32h320c17.673 0 32-14.327 32-32s-14.327-32-32-32h-320c-17.673 0-32 14.327-32 32zM192 416.043c0 17.673 14.327 32 32 32h128c17.673 0 32-14.327 32-32s-14.327-32-32-32h-128c-17.673 0-32 14.327-32 32z" />
<glyph unicode="&#xe910;" glyph-name="contact" d="M129.080 605.015c-73.569-14.405-129.080-79.229-129.080-157.015v-128c0-88.367 71.634-160 160-160h32c35.346 0 64 28.655 64 64v320c0 34.819-27.805 63.143-62.422 63.981 16.046 161.716 152.484 288.019 318.422 288.019 84.868 0 166.263-33.714 226.274-93.726 52.425-52.426 84.783-121.17 92.126-194.294-34.607-0.85-62.4-29.169-62.4-63.98v-320c0-35.345 28.655-64 64-64 0-53.018-42.982-96-96-96h-69.461c-13.18 37.286-48.738 64-90.539 64h-64c-53.018 0-96-42.982-96-96s42.982-96 96-96h64c41.801 0 77.359 26.714 90.539 64h69.461c88.367 0 160 71.633 160 160v3.2c73.033 14.827 128 79.394 128 156.8v128c0 77.794-55.518 142.62-129.097 157.018-6.912 91.229-46.229 177.368-111.373 242.511-72.017 72.014-169.69 112.471-271.531 112.471-202.316 0-368.089-156.461-382.92-354.985zM160 544c-53.019 0-96-42.982-96-96v-128c0-53.018 42.981-96 96-96h32v320h-32zM864 544h-32v-320h32c53.018 0 96 42.982 96 96v128c0 53.018-42.982 96-96 96zM512 64c-17.673 0-32-14.327-32-32s14.327-32 32-32h64c17.673 0 32 14.327 32 32s-14.327 32-32 32h-64z" />
<glyph unicode="&#xe911;" glyph-name="logout" horiz-adv-x="1067" d="M184.628 927.96c0.531 0.026 1.062 0.040 1.593 0.040h608.983c0.529 0 1.062-0.013 1.591-0.040 51.034-2.544 90.479-45.643 88.606-96.608v-191.352c0-17.673-14.327-32-32-32-17.677 0-32 14.327-32 32v192c0 0.481 0.009 0.962 0.030 1.443 0.717 15.9-11.375 29.423-27.17 30.557h-607.1c-15.782-1.134-27.857-14.65-27.129-30.534 0.023-0.489 0.034-0.977 0.034-1.466v-768c0-0.482-0.011-0.964-0.032-1.442-0.718-15.889 11.357-29.41 27.141-30.558h607.087c15.795 1.135 27.887 14.656 27.17 30.558-0.021 0.482-0.030 0.96-0.030 1.442v192c0 17.673 14.323 32 32 32 17.673 0 32-14.327 32-32v-191.351c1.873-50.965-37.572-94.063-88.606-96.61-0.529-0.026-1.062-0.038-1.591-0.038h-608.983c-0.539 0-1.077 0.013-1.615 0.043-51.008 2.577-90.414 45.666-88.539 96.606v766.693c-1.904 50.961 37.528 94.075 88.561 96.619zM470.694 630.457c12.497-12.497 12.497-32.758 0-45.255l-105.373-105.373h168.076v-64h-168.076l105.373-105.374c12.497-12.497 12.497-32.755 0-45.252s-32.759-12.497-45.256 0l-160 160c-6.001 5.999-9.373 14.14-9.373 22.626s3.372 16.627 9.373 22.626l160 160.001c12.496 12.497 32.759 12.497 45.256 0zM533.397 415.829h458.667c17.673 0 32 14.327 32 32s-14.327 32-32 32h-458.667v-64z" />
<glyph unicode="&#xe912;" d="M512-64c282.769 0 512 229.231 512 512s-229.231 512-512 512c-282.77 0-512-229.23-512-512s229.23-512 512-512z" />
<glyph unicode="&#xe913;" d="M105.827 759.719c-40.218-52.326-70.544-112.636-88.202-178.154h266.356l-178.154 178.154z" />
<glyph unicode="&#xe914;" d="M1006.353 581.567c-17.66 65.516-47.987 125.826-88.205 178.152l-178.146-178.152h266.351z" />
<glyph unicode="&#xe915;" d="M17.625 314.436c17.66-65.515 47.986-125.824 88.202-178.15l178.148 178.15h-266.35z" />
<glyph unicode="&#xe916;" d="M823.693 854.161c-52.326 40.218-112.631 70.544-178.15 88.204v-266.354l178.15 178.15z" />
<glyph unicode="&#xe917;" d="M200.292 41.843c52.326-40.218 112.636-70.545 178.152-88.205v266.351l-178.152-178.146z" />
<glyph unicode="&#xe918;" d="M378.442 942.365c-65.516-17.66-125.826-47.986-178.15-88.202l178.15-178.15v266.352z" />
<glyph unicode="&#xe919;" d="M645.542-46.362c65.515 17.66 125.824 47.987 178.15 88.201l-178.15 178.15v-266.351z" />
<glyph unicode="&#xe91a;" d="M740.002 314.436l178.146-178.15c40.218 52.322 70.545 112.636 88.205 178.15h-266.351z" />
<glyph unicode="&#xe91b;" d="M1019.665 514.782h-440.879v440.884c-21.862 2.846-44.151 4.334-66.786 4.334-22.639 0-44.924-1.488-66.782-4.334v-440.88h-440.884c-2.846-21.862-4.334-44.151-4.334-66.786 0-22.639 1.488-44.924 4.334-66.782h440.88v-440.883c21.862-2.846 44.147-4.335 66.786-4.335 22.635 0 44.924 1.485 66.782 4.335v440.879h440.883c2.846 21.862 4.335 44.147 4.335 66.786 0 22.635-1.489 44.924-4.335 66.782z" />
<glyph unicode="&#xe91c;" d="M645.585 314.436l228.471-228.471c10.509 10.505 20.531 21.483 30.093 32.87l-195.601 195.601h-62.963z" />
<glyph unicode="&#xe91d;" d="M378.432 314.428h-0.004l-228.47-228.471c10.504-10.509 21.486-20.531 32.87-30.097l195.604 195.61v62.959z" />
<glyph unicode="&#xe91e;" d="M378.443 581.564v0.004l-228.472 228.474c-10.508-10.504-20.532-21.486-30.096-32.87l195.606-195.606 62.962-0.002z" />
<glyph unicode="&#xe91f;" d="M645.585 581.565l228.471 228.476c-10.505 10.508-21.487 20.532-32.87 30.094l-195.601-195.606v-62.964z" />
<glyph unicode="&#xe920;" glyph-name="dots" d="M102.4 140.8c56.553 0 102.4-45.846 102.4-102.4s-45.847-102.4-102.4-102.4c-56.554 0-102.4 45.846-102.4 102.4s45.846 102.4 102.4 102.4zM512 140.8c56.553 0 102.4-45.846 102.4-102.4s-45.847-102.4-102.4-102.4c-56.553 0-102.4 45.846-102.4 102.4s45.847 102.4 102.4 102.4zM921.6 140.8c56.554 0 102.4-45.846 102.4-102.4s-45.846-102.4-102.4-102.4c-56.554 0-102.4 45.846-102.4 102.4s45.846 102.4 102.4 102.4zM102.4 550.4c56.553 0 102.4-45.847 102.4-102.4s-45.847-102.4-102.4-102.4c-56.554 0-102.4 45.847-102.4 102.4s45.846 102.4 102.4 102.4zM512 550.4c56.553 0 102.4-45.847 102.4-102.4s-45.847-102.4-102.4-102.4c-56.553 0-102.4 45.847-102.4 102.4s45.847 102.4 102.4 102.4zM921.6 550.4c56.554 0 102.4-45.847 102.4-102.4s-45.846-102.4-102.4-102.4c-56.554 0-102.4 45.847-102.4 102.4s45.846 102.4 102.4 102.4zM102.4 960c56.553 0 102.4-45.846 102.4-102.4s-45.847-102.4-102.4-102.4c-56.554 0-102.4 45.847-102.4 102.4s45.846 102.4 102.4 102.4zM512 960c56.553 0 102.4-45.846 102.4-102.4s-45.847-102.4-102.4-102.4c-56.553 0-102.4 45.847-102.4 102.4s45.847 102.4 102.4 102.4zM921.6 960c56.554 0 102.4-45.846 102.4-102.4s-45.846-102.4-102.4-102.4c-56.554 0-102.4 45.847-102.4 102.4s45.846 102.4 102.4 102.4z" />
<glyph unicode="&#xe921;" glyph-name="download" d="M938.667 448c43.759 0 79.829-32.942 84.762-75.382l0.572-9.952v-170.667c0-136.337-106.573-247.782-240.958-255.565l-15.042-0.435h-512c-136.335 0-247.779 106.573-255.565 240.958l-0.435 15.042v170.667c0 47.128 38.205 85.333 85.333 85.333 43.762 0 79.83-32.942 84.759-75.382l0.574-9.952v-170.667c0-43.762 32.942-79.83 75.382-84.759l9.952-0.574h512c43.762 0 79.83 32.942 84.759 75.382l0.574 9.952v170.667c0 47.128 38.204 85.333 85.333 85.333zM512 960c47.128 0 85.333-38.205 85.333-85.333v-305.835l24.993 24.841c30.762 30.761 79.165 33.127 112.641 7.099l8.039-7.099c30.761-30.762 33.127-79.165 7.099-112.641l-7.099-8.039-170.667-170.667-3.751-3.532-5.789-4.708-9.493-6.115-9.619-4.56-8.99-3.019-12.674-2.476-10.024-0.583-6.42 0.238-10.708 1.489-9.507 2.517-9.479 3.749-8.319 4.465-8.195 5.699c-2.707 2.123-5.281 4.407-7.711 6.835l-170.667 170.667c-33.324 33.325-33.324 87.355 0 120.68 30.762 30.761 79.165 33.127 112.641 7.099l8.039-7.099 24.993-24.927v305.92c0 47.128 38.205 85.333 85.333 85.333z" />
<glyph unicode="&#xe922;" d="M512 864c-229.372 0-416-186.628-416-416s186.628-416 416-416c229.371 0 416 186.629 416 416s-186.629 416-416 416zM512 800c194.783 0 352-157.217 352-352s-157.217-352-352-352c-194.783 0-352 157.217-352 352s157.217 352 352 352z" />
<glyph unicode="&#xe923;" d="M512 512c-32.822 0-59.873-24.707-63.569-56.536l-0.431-7.464v-192c0-35.347 28.654-64 64-64 32.822 0 59.873 24.704 63.569 56.538l0.431 7.462v192c0 35.346-28.654 64-64 64z" />
<glyph unicode="&#xe924;" d="M512 704c-35.346 0-64-28.654-64-64s28.654-64 64-64c35.346 0 64 28.654 64 64s-28.654 64-64 64z" />
<glyph unicode="&#xe925;" glyph-name="filter" horiz-adv-x="1088" d="M424.026 435.208l-192.507 269.548c-18.906 26.472 0.015 63.244 32.542 63.244h559.875c32.531 0 51.45-36.772 32.544-63.244l-192.506-269.548v-187.164c0-15.155-8.557-29.005-22.106-35.776l-159.967-79.994c-26.59-13.299-57.876 6.042-57.876 35.776v267.157z" />
<glyph unicode="&#xe926;" glyph-name="close" d="M1009.004 945.004c19.994-19.995 19.994-52.413 0-72.408l-921.599-921.599c-19.995-19.994-52.413-19.994-72.408 0s-19.995 52.413 0 72.407l921.6 921.6c19.994 19.995 52.413 19.995 72.407 0zM14.996 945.004c19.995 19.995 52.413 19.995 72.408 0l921.599-921.6c19.994-19.994 19.994-52.413 0-72.407s-52.413-19.994-72.407 0l-921.6 921.599c-19.995 19.995-19.995 52.413 0 72.408z" />
<glyph unicode="&#xe927;" glyph-name="refresh" horiz-adv-x="788" d="M180.609 700.618l157.538 157.538c47.465 47.464 127.156 17.373 133.997-46.748l0.471-8.951 0.094-86.667c179.724-36.528 314.983-195.442 314.983-385.949 0-217.517-176.331-393.85-393.846-393.85s-393.846 176.333-393.846 393.85c0 43.503 35.266 78.769 78.769 78.769s78.769-35.267 78.769-78.769c0-130.51 105.799-236.312 236.308-236.312s236.308 105.802 236.308 236.312c0 102.863-65.723 190.376-157.468 222.836l-0.071-65.297c0-67.125-77.628-102.198-127.805-61.694l-6.662 5.996-157.538 157.538c-28.395 28.396-30.579 73.076-6.553 103.976l6.553 7.421z" />
<glyph unicode="&#xe928;" glyph-name="checkmark" horiz-adv-x="1229" d="M400.39 192.425l-225.583 225.581c-39.989 39.989-104.825 39.989-144.815 0s-39.99-104.826 0-144.815l307.199-307.197c43.409-43.408 114.997-39.128 152.926 9.142l716.8 819.195c34.939 44.469 27.218 108.843-17.254 143.784s-108.841 27.215-143.79-17.254l-645.482-728.436z" />
<glyph unicode="&#xe929;" glyph-name="globe-solid" d="M704 448c0-44.4-2.4-87.2-6.6-128h-370.8c-4.2 40.8-8.4 83.6-8.4 128s4.2 87.2 8.4 128h370.8c4.2-40.8 6.6-83.6 6.6-128zM1007.8 576c10.6-41 16.2-83.8 16.2-128s-5.6-87-16.2-128h-246.2c4.2 41.2 6.4 85.8 6.4 128 0 44-2.2 86.8-6.4 128h246.2zM986.8 640h-233.4c-20 127.72-59.6 234.76-110.6 303.116 156.8-41.296 284-154.996 344-303.116zM688.6 640h-353.2c12.2 72.8 31 137.24 54 189.3 21 47.22 44.4 81.48 67 103.080 22.4 21.264 41 27.62 55.6 27.62s33.2-6.356 55.6-27.62c22.6-21.6 46-55.86 67-103.080 23-52.060 41.8-116.5 54-189.3v0zM37.22 640c59.96 148.12 187.18 261.82 343.98 303.116-51-68.356-90.6-175.396-110.6-303.116h-233.38zM262.4 576c-4.2-41.2-8.2-84-8.2-128 0-42.2 4-86.8 8.2-128h-246.27c-10.53 41-16.13 83.8-16.13 128s5.6 87 16.13 128h246.27zM389.4 66.8c-23 52-41.8 116.4-54 189.2h353.2c-12.2-72.8-31-137.2-54-189.2-21-47.4-44.4-81.6-67-103.2-22.4-21.2-41-27.6-57.4-27.6-12.8 0-31.4 6.4-53.8 27.6-22.6 21.6-46 55.8-67 103.2v0zM381.2-47.2c-156.8 41.4-284.020 155-343.98 303.2h233.38c20-127.8 59.6-234.8 110.6-303.2v0zM642.8-47.2c51 68.4 90.6 175.4 110.6 303.2h233.4c-60-148.2-187.2-261.8-344-303.2v0z" />
<glyph unicode="&#xe92a;" glyph-name="earth-europe-solid" d="M1024 448c0-282.8-229.2-512-512-512s-512 229.2-512 512c0 282.8 229.2 512 512 512s512-229.2 512-512zM532.6 863.5l-67.6-50.7c-10.6-8.060-17-20.7-17-34.14v-18.1c0-13.56 11-24.56 24.6-24.56 4.8 0 9.6 1.4 13.6 4.2l83.6 55.68c4 2.68 8.8 4.12 13.6 4.12h2c12.4 0 22.6-10.14 22.6-22.62 0-6-2.4-11.76-6.6-16l-39.8-39.78c-11.6-9.8-25.8-20.4-41.2-25.4l-53.2-17.8c-11.4-3.8-19.2-14.6-19.2-26.8 0-7.4-3-14.6-8.2-19.8l-36-36c-12.6-12.6-19.8-30-19.8-48v-8.4c0-32.8 27.2-59.4 59.8-59.4 22 0 42.4 12.4 52.2 32l8 16.2c5 9.6 14.8 15.8 25.6 15.8 9.2 0 17.6-4.2 23-11.4l32.6-43.6c4.2-5.6 11-9 18.2-9 16.8 0 27.8 17.8 20.2 32.8l-2.2 4.6c-7.2 14 0 31 14.8 36l42.4 14.2c15.2 5 25.4 19.2 25.4 35.2 0 20.6 16.6 37.2 37.2 37.2h58.8c17.6 0 32-14.4 32-32s-14.4-32-32-32h-41.4c-14.4 0-28.4-5.8-38.6-16l-9.4-9.4c-4.2-4.2-6.6-10-6.6-16 0-12.4 10.2-22.6 22.6-22.6h22.6c12 0 23.6-4.8 32-13.2l13.2-13.2c1.8-1.8 5.6-8.4 5.6-13.6s-3.8-10-5.6-13.6l-15-15c-7.4-5.6-11.4-17.2-11.4-27.4s4-20 11.4-27.4l36.6-36.6c20.4-20.4 48.2-32 77.2-32h13c14.8 40.4 21.8 83.4 21.8 128 0 222.8-175.2 404.72-395.4 415.5v0zM876.8 247.8c-7.4 5.2-16.4 8.2-26 8.2-12 0-23.6 4.8-32 13.2l-28.6 28.6c-13.6 13.6-34.4 22.2-56 22.2-19.4 0-38.4 7-53.2 19.6l-54.8 45.6c-21.4 19.8-51 32.6-81.6 32.6h-41.8c-25.4 0-50-9.2-71-23.2l-54.8-36.6c-35.6-23.8-57-63.8-57-106.6v-6.4c0-34 13.4-66.4 37.4-90.4l32-32c17-17 40-26.6 64-26.6h42.6c26.6 0 48-21.4 48-48 0-5 0.8-10 2.2-14.6 142.8 11.6 265 95.2 330.6 214.4v0zM329.4 758.6l-64-64c-12.6-12.4-12.6-32.8 0-45.2 12.4-12.6 32.8-12.6 45.2 0l64 64c12.6 12.4 12.6 32.8 0 45.2-12.4 12.52-32.8 12.52-45.2 0v0z" />
<glyph unicode="&#xe92b;" glyph-name="european-union-european-union-svgrepo-com" horiz-adv-x="874" d="M504.73 501.146l-6.286 12.091-17.699-17.12 8.609-10.831 15.376 15.86zM451.923 102.392l-2.028 15.766-19.732-8.606 4.738-23.312 9.48-5.703 7.542 21.855zM125.802 423.775l26.017 9.866 18.956-2.903 11.607 20.795 2.706 33.268-25.34 9.381-3.769 8.704 19.535 13.347-16.053 6.869-12.379-24.084-19.539 7.542-10.539-25.628 10.831-10.252-15.667-19.054-12.379-2.32 2.804-18.57 23.209-6.963zM502.504 517.683l13.832-26.596 17.699 6.093 4.159 18.57 18.566 1.646 9.866 26.884 0.969 46.62 15.667 14.505 10.539 26.112-24.856 19.054-5.896 24.564 2.414 22.051 12.284 29.109 25.242 25.147 6.483 18.664-5.707 10.642 13.54 33.56 18.085 2.225 16.538-6.967-3.289-19.629-22.15-51.259-14.119-21.665 13.446-42.071 0.095-16.636 37.912-13.635 53.484 28.144 32.398 82.885-27.467 17.794-35.686 86.461 3.482 27.758-23.887 20.504 2.028 29.787-19.728 14.119-13.249-8.027-6.093-41.681-28.050-2.808-12.863 14.604-10.153-8.704-4.643-21.855-20.311 3.19-35.879-76.599 1.158-24.273-9.767-22.63 4.742-16.928-16.443-2.32-8.413-20.216 3.576-46.324 10.543-10.059-8.511-11.8 4.545-25.336-11.8-16.829-6.093-35.978 27.853-54.355-6.093-5.514zM577.749-10.567l-26.017-8.031-16.632 5.707-15.573-11.993 50.968-28.144 14.509-3.096-0.579 19.925 7.637 23.599-14.312 2.032zM419.619 61.869l7.641-30.366-3.289-14.411 27.467-3.096 6.384 41.102-13.249 22.15-24.954-15.38zM851.255 225.8l14.797 11.701-2.418 15.376-26.21-7.739-9.866 17.991-8.609 29.015-27.758 27.274-31.527-15.281-46.23-7.641-16.636 10.638 4.45 20.504-0.484 13.54 21.665 34.139-13.056 21.181-5.514 52.708-11.315 21.276 15.376 1.449 16.636 17.215 8.802 41.586 15.183 7.448 6.479 12.765-22.437 35.493 0.87 13.442-15.667 21.276 9.188 20.795-32.981-0.098-30.464-19.826 4.352-18.857 15.86-17.408 4.836-18.085-9.188-9.673-21.472 19.633-12.765-8.22-6.672-22.146 3.289-22.339 7.349-21.567 27.081-7.641 2.032-15.573-68.281-9.476-8.318 12.379-28.53-11.221-6.672-8.413-32.205-12.572-29.98 14.218-22.244-13.832-29.692 23.016 2.611 17.991 10.831 14.218 0.291 29.015-15.667 2.71-18.956-12.765 7.834-48.549 2.804-31.141-29.401-16.246-20.89 5.707-22.437-11.414-16.636-38.975 4.352-6.869-0.677 0.098-15.86 1.548-15.86-6.865-17.991-4.45-10.736-25.34-18.377-4.45-10.445-11.8-17.506 7.062-10.153-18.57-22.729-3.19-5.9 11.8-29.208-1.449-5.415-7.542 13.154-16.152 33.465-30.948 1.162-16.538 12.765-9.283-15.088-64.217-12.477-16.924-7.542-1.642-105.708 30.369-12.091 8.897-35.785-16.246 9.283-21.469-5.222-8.802-5.321-28.53-11.315-23.694-25.147-36.947 13.056-14.411-15.088-37.526 28.337-7.349 9.96 2.804 19.728-11.993 3.675-21.181 18.085-9.090 0.386-0.098 25.242 12.284 55.127-9.48 13.926 16.829 21.083 7.641 10.736 17.022 18.857 9.283-9.381 24.954 35.686 40.909 24.663 4.061 28.144 17.699 0.098 13.832 0.386 20.019 18.861 10.929 35.686-12.863 22.536-0.772 18.377 16.731 14.312 4.352 12.091 13.54 29.109-12.186 13.635-35.686 52.322-45.359 15.088 1.449 9.090-11.894 15.088-3.773 4.45-12.67 16.345-3.868 16.345-38.298-11.221-16.152 11.122-7.932 21.181 30.562-0.193 15.183-15.573 6.963 9.767 25.824 21.181 6.093-46.616 18.664-1.162 15.183-19.925-1.839-24.277 18.184-11.315 26.982-27.467 20.019 2.71 21.276-5.9 14.312 29.499 5.029-2.32-3.19 28.53-13.926 6.191-22.051 17.892-13.926 4.738 16.152-11.414 27.081 23.308 5.801 45.745-5.994-7.349 29.306 26.498 8.802 13.154-16.345 16.538-7.735v-10.736l23.599-4.545 5.707-7.062-5.029-13.54 16.538-15.281-8.413-11.315-0.677-16.829 12.379-6.77 5.222-19.535-39.558-21.374-14.411-41.779 21.469-21.953 16.246-9.574-7.255-15.088 11.315-6.577 10.153-21.374 31.047 4.643-3.868 35.785 14.99 12.477-16.538 7.641-16.636 31.24-8.027 7.062 28.629 14.895 2.127 11.221 18.861 12.379 25.628-1.642-1.934 28.337 17.601 15.766 8.704 20.988-2.127 13.056 8.897 20.118-3.072 24.344zM461.017 227.253l-43.618-12.284-16.538 0.969-4.257 14.411-12.961 6.093 30.369 27.565 20.212 5.707 21.953-7.542-2.127-12.863 16.829-7.062-9.862-14.994z" />
<glyph unicode="&#xe92c;" glyph-name="monitor" d="M544 161.984h-96v-49.984l-96-16v-32h286.016v30.016l-94.016 17.984v49.984zM864 832h-736c-35.36 0-64-28.64-64-64v-448c0-35.328 28.64-64 64-64h736c35.36 0 64 28.672 64 64v448c0 35.36-28.64 64-64 64zM492 304c-17.664 0-32 14.336-32 32 0 17.696 14.336 32 32 32 17.696 0 32-14.304 32-32 0-17.664-14.336-32-32-32zM864 416h-736v352h736v-352z" />
<glyph unicode="&#xe92d;" glyph-name="download1" d="M883.968 289.44l-30.656-162.304h-682.624l-30.656 162.304h-76.32v-257.984h896.576v257.984h-76.32zM864.64 577.728h-224.704v93.76h-255.808v-93.76h-222.56l349.248-365.184 353.824 365.184zM639.904 832.576h-255.808v-34.112h255.808v34.112zM639.904 768.864h-255.808v-65.216h255.808v65.216z" />
<glyph unicode="&#xe92e;" glyph-name="forward" d="M714.048 448l-271.52-271.52-90.528 90.496 181.024 181.024-181.024 181.024 90.496 90.496 271.552-271.52z" />
<glyph unicode="&#xe92f;" glyph-name="european-flag-svgrepo-com" d="M512 867.39l-18.808-38.108-42.060-6.112 30.434-29.664-7.184-41.89 37.618 19.774 37.62-19.776-7.186 41.89 30.434 29.664-42.060 6.114-18.808 38.11zM335.132 814.74l-18.808-38.112-42.060-6.112 30.436-29.664-7.184-41.892 37.616 19.78 37.62-19.78-7.186 41.892 30.434 29.664-42.060 6.112-18.808 38.11zM688.868 814.74l-18.81-38.112-42.058-6.112 30.434-29.664-7.184-41.892 37.62 19.78 37.614-19.78-7.184 41.892 30.434 29.664-42.060 6.112-18.806 38.11zM201.132 679.89l-18.808-38.108-42.060-6.112 30.436-29.664-7.184-41.89 37.616 19.776 37.62-19.776-7.186 41.89 30.434 29.662-42.060 6.114-18.808 38.11zM822.868 679.89l-18.81-38.108-42.060-6.112 30.434-29.664-7.184-41.89 37.62 19.776 37.614-19.776-7.184 41.89 30.434 29.664-42.060 6.114-18.806 38.11zM153.132 502.9l-18.808-38.108-42.060-6.112 30.436-29.664-7.184-41.89 37.616 19.776 37.62-19.774-7.186 41.89 30.434 29.662-42.060 6.112-18.808 38.11zM870.868 502.9l-18.81-38.108-42.058-6.112 30.434-29.664-7.184-41.89 37.62 19.776 37.614-19.774-7.184 41.89 30.434 29.664-42.060 6.112-18.806 38.11zM201.132 323.106l-18.808-38.11-42.060-6.114 30.436-29.66-7.184-41.892 37.616 19.78 37.62-19.78-7.186 41.89 30.434 29.66-42.060 6.116-18.808 38.11zM822.868 323.106l-18.81-38.11-42.058-6.116 30.434-29.66-7.184-41.892 37.62 19.78 37.614-19.78-7.184 41.89 30.434 29.66-42.060 6.116-18.806 38.11zM335.132 191.614l-18.808-38.11-42.060-6.114 30.436-29.664-7.184-41.89 37.616 19.78 37.62-19.78-7.186 41.89 30.434 29.664-42.060 6.114-18.808 38.11zM688.868 191.614l-18.81-38.11-42.060-6.114 30.434-29.664-7.184-41.89 37.62 19.78 37.614-19.78-7.184 41.89 30.434 29.664-42.060 6.114-18.806 38.11zM511.648 144.386l-18.808-38.112-42.060-6.11 30.434-29.668-7.18-41.886 0.77 0.406-0.070-0.406 37.266 19.594 37.266-19.594-0.070 0.406 0.772-0.406-7.18 41.886 30.43 29.668-42.060 6.11-18.808 38.112-0.352-0.71-0.352 0.71z" />
<glyph unicode="&#xe930;" glyph-name="flag-for-european-union-svgrepo-com" d="M512 928c-265.088 0-480-214.912-480-480s214.912-480 480-480 480 214.912 480 480-214.912 480-480 480zM464.256 196.512h36.464l11.28 34.72 11.28-34.72h36.464l-29.504-21.456 11.248-34.688-29.488 21.44-29.536-21.44 11.28 34.688-29.488 21.456zM409.024 183.584l-29.504 21.456-29.536-21.456 11.28 34.688-29.504 21.456h36.464l11.28 34.72 11.28-34.72h36.464l-29.536-21.456 11.312-34.688zM317.792 274.816l-29.536 21.456-29.504-21.456 11.264 34.688-29.536 21.456h36.48l11.28 34.72 11.264-34.72h36.48l-29.504-21.456 11.312-34.688zM197.328 463.824h36.48l11.28 34.688 11.264-34.688h36.48l-29.504-21.456 11.28-34.688-29.536 21.44-29.504-21.44 11.232 34.688-29.472 21.456zM317.792 540.528l-29.536 21.44-29.504-21.44 11.264 34.688-29.536 21.456h36.48l11.28 34.72 11.264-34.72h36.48l-29.504-21.456 11.312-34.688zM409.024 631.76l-29.504 21.44-29.536-21.44 11.28 34.688-29.504 21.456h36.464l11.28 34.72 11.28-34.72h36.464l-29.504-21.456 11.28-34.688zM541.536 674.976l-29.536 21.424-29.504-21.44 11.28 34.688-29.536 21.456h36.496l11.264 34.688 11.28-34.688h36.464l-29.504-21.456 11.296-34.672zM765.232 540.528l-29.536 21.44-29.504-21.44 11.28 34.688-29.536 21.456h36.48l11.264 34.72 11.28-34.72h36.48l-29.504-21.456 11.296-34.688zM765.232 274.816l-29.536 21.456-29.504-21.456 11.28 34.688-29.536 21.456h36.48l11.264 34.72 11.28-34.72h36.48l-29.504-21.456 11.296-34.688zM662.72 666.448l11.248-34.688-29.504 21.44-29.536-21.44 11.28 34.688-29.504 21.456h36.464l11.28 34.72 11.28-34.72h36.464l-29.472-21.456zM633.184 239.712l11.28 34.72 11.28-34.72h36.464l-29.504-21.456 11.28-34.688-29.536 21.456-29.536-21.456 11.28 34.688-29.504 21.456h36.496zM808.4 407.68l-29.504 21.44-29.536-21.44 11.28 34.688-29.504 21.456h36.48l11.264 34.688 11.248-34.688h36.512l-29.536-21.456 11.296-34.688z" />
</font>
</defs>
</svg>
