<svg width="196" height="30" viewBox="0 0 196 30" fill="none" xmlns="http://www.w3.org/2000/svg">
<g clip-path="url(#clip0_2750:4240)">
<path d="M2.52155 18.112C2.54752 18.8442 2.78068 19.5532 3.19313 20.1544C3.86472 21.0109 5.03481 21.4392 6.70341 21.4392C7.61519 21.4626 8.51731 21.245 9.32134 20.8079C9.67904 20.6197 9.97573 20.3308 10.1759 19.9759C10.3761 19.6209 10.4712 19.2149 10.45 18.8065C10.4588 18.4877 10.3789 18.1729 10.2194 17.8981C10.0599 17.6234 9.82728 17.3999 9.54831 17.2533C8.81774 16.9161 8.05225 16.663 7.26617 16.4989L5.14881 15.9654C4.09767 15.7498 3.08563 15.3708 2.14845 14.8416C1.00841 14.1176 0.438395 13.1243 0.438395 11.8616C0.416805 11.1699 0.551257 10.4824 0.831474 9.85154C1.11169 9.22071 1.53026 8.66328 2.05517 8.22185C3.1351 7.29376 4.58605 6.82971 6.40803 6.82971C8.79382 6.82971 10.5122 7.53051 11.5631 8.93212C12.1985 9.74812 12.5378 10.7614 12.5238 11.8016H10.0365C9.98672 11.2052 9.76382 10.6373 9.39596 10.1696C8.77412 9.47088 7.70456 9.12257 6.18728 9.12467C5.17369 9.12467 4.40572 9.31408 3.88337 9.69921C3.63789 9.86533 3.43747 10.0915 3.30056 10.3568C3.16365 10.6221 3.09463 10.9181 3.09986 11.2176C3.10397 11.5626 3.20236 11.8996 3.38408 12.1911C3.56579 12.4826 3.82369 12.7172 4.129 12.8686C4.67738 13.1705 5.26753 13.3865 5.87947 13.5094L7.6486 13.9387C9.56593 14.4038 10.8521 14.8521 11.5071 15.2835C12.529 15.9654 13.0399 17.0366 13.0399 18.4971C13.0431 19.1863 12.902 19.8684 12.6259 20.498C12.3499 21.1277 11.9452 21.6906 11.4387 22.1495C10.3691 23.1765 8.74303 23.69 6.56038 23.69C4.20984 23.69 2.54539 23.1544 1.56703 22.0832C0.583662 20.9987 0.0261221 19.5858 0 18.112H2.52155Z" fill="#0074C7"/>
<path d="M15.6674 2.81116H18.3164V7.23062H20.8038V9.40564H18.3164V19.7535C18.3164 20.3059 18.4999 20.6753 18.8699 20.8647C19.194 20.9938 19.5422 21.0488 19.8897 21.0257H20.297C20.4677 21.0176 20.6379 21.0007 20.8069 20.9752V23.0934C20.5014 23.182 20.1895 23.2464 19.8741 23.2859C19.5231 23.3252 19.1702 23.3441 18.817 23.3427C17.592 23.3427 16.7619 23.0271 16.3297 22.3957C15.8662 21.6575 15.6382 20.7922 15.6767 19.9177V9.4088H13.5625V7.23378H15.6767L15.6674 2.81116Z" fill="#0074C7"/>
<path d="M22.7588 7.23378H25.2461V9.96754C25.4513 9.43404 25.9488 8.78375 26.7479 8.01981C27.1117 7.6549 27.5428 7.36642 28.0166 7.17087C28.4903 6.97533 28.9974 6.87656 29.5088 6.88022C29.5907 6.87594 29.6726 6.87594 29.7545 6.88022L30.3545 6.93704V9.74972C30.2116 9.72212 30.0673 9.7021 29.9224 9.68974C29.7918 9.68974 29.6487 9.67396 29.4933 9.67396C28.1729 9.67396 27.1573 10.1064 26.4463 10.9714C25.7487 11.8016 25.371 12.8602 25.3829 13.9514V23.0681H22.7588V7.23378Z" fill="#0074C7"/>
<path d="M40.2451 13.4905C40.4958 13.4821 40.7399 13.4067 40.9528 13.2721C41.1657 13.1374 41.3398 12.9481 41.4577 12.7234C41.5897 12.3986 41.6492 12.0483 41.6318 11.6974C41.6318 10.7883 41.3209 10.119 40.6773 9.71497C40.0337 9.31091 39.1227 9.0994 37.9506 9.0994C36.5825 9.0994 35.6135 9.4761 35.0435 10.2295C34.6775 10.7824 34.4629 11.4241 34.4216 12.0889H31.9685C32.0161 10.1275 32.638 8.75952 33.834 7.98506C35.0858 7.20193 36.5334 6.80188 38.0034 6.83285C39.8378 6.83285 41.3271 7.18851 42.4713 7.89984C43.6155 8.61116 44.1834 9.71603 44.1751 11.2144V20.3438C44.1638 20.5779 44.2223 20.8101 44.343 21.0099C44.4319 21.1066 44.5425 21.1801 44.6654 21.224C44.7883 21.268 44.9198 21.2812 45.0488 21.2624C45.167 21.2624 45.2976 21.2624 45.4437 21.2403C45.5898 21.2182 45.7546 21.2024 45.9101 21.174V23.1407C45.6047 23.2366 45.293 23.3104 44.9773 23.3616C44.6874 23.3963 44.3955 23.4111 44.1036 23.4058C43.1999 23.4058 42.5439 23.0807 42.1355 22.4304C41.8873 21.9787 41.7328 21.4803 41.6816 20.9657C41.0599 21.7485 40.2738 22.3806 39.3808 22.8155C38.3565 23.3439 37.2214 23.6125 36.0726 23.5984C34.7655 23.653 33.4906 23.1784 32.5281 22.2789C32.0795 21.8503 31.725 21.3305 31.4876 20.7534C31.2503 20.1762 31.1355 19.5548 31.1508 18.9296C31.1508 17.4564 31.6026 16.3189 32.5064 15.5171C33.5147 14.6635 34.7556 14.1426 36.0633 14.024L40.2451 13.4905ZM34.7232 20.7005C35.2844 21.1452 35.9796 21.3794 36.6913 21.3634C37.6225 21.3622 38.5404 21.1395 39.3715 20.7131C40.0451 20.42 40.6146 19.925 41.0035 19.2942C41.3925 18.6635 41.5824 17.9272 41.5479 17.1839V15.0183C41.1617 15.2549 40.7423 15.4305 40.3042 15.5392C39.8164 15.6739 39.3197 15.7731 38.818 15.8359L37.2354 16.0411C36.4901 16.1095 35.7631 16.3149 35.0901 16.6472C34.7015 16.8601 34.3808 17.1811 34.1655 17.5724C33.9502 17.9638 33.8492 18.4094 33.8744 18.857C33.8584 19.211 33.9273 19.5638 34.0752 19.8849C34.223 20.206 34.4454 20.4858 34.7232 20.7005Z" fill="#0074C7"/>
<path d="M48.2612 2.81116H50.9133V7.23062H53.4007V9.40564H50.9133V19.7535C50.9133 20.3059 51.0967 20.6753 51.4667 20.8647C51.7909 20.9938 52.1391 21.0488 52.4865 21.0257H52.8939C53.0646 21.0176 53.2347 21.0007 53.4038 20.9752V23.0934C53.0983 23.1823 52.7864 23.2467 52.471 23.2859C52.12 23.3252 51.767 23.3441 51.4139 23.3427C50.1889 23.3427 49.3587 23.0271 48.9265 22.3957C48.4606 21.6585 48.2314 20.7927 48.2705 19.9177V9.4088H46.1562V7.23378H48.2705L48.2612 2.81116Z" fill="#0074C7"/>
<path d="M64.923 7.67257C65.8754 8.12962 66.6902 8.83696 67.2828 9.7213C67.8233 10.5674 68.1795 11.521 68.3275 12.5182C68.512 13.6721 68.589 14.841 68.5576 16.0096H57.206C57.2516 17.6237 57.6226 18.9169 58.319 19.8892C59.0155 20.8615 60.0871 21.3487 61.5339 21.3508C62.1433 21.3773 62.7509 21.2672 63.3135 21.0282C63.8762 20.7892 64.38 20.4273 64.7893 19.9681C65.2435 19.4311 65.572 18.7965 65.75 18.112H68.3306C68.2265 18.7975 67.9966 19.4571 67.6528 20.0565C67.3188 20.7068 66.8854 21.2992 66.3687 21.8117C65.5565 22.612 64.5397 23.1653 63.4337 23.409C62.7368 23.5747 62.0227 23.6542 61.307 23.6458C60.3853 23.6591 59.4714 23.4741 58.6252 23.103C57.7791 22.732 57.0199 22.1832 56.3976 21.4929C55.0544 20.0555 54.3828 18.0457 54.3828 15.4635C54.3828 12.9149 55.0585 10.8483 56.41 9.26357C57.7615 7.67887 59.5233 6.88442 61.6956 6.88022C62.8182 6.87975 63.9246 7.1514 64.923 7.67257ZM65.8557 13.8945C65.8025 12.9297 65.5515 11.9868 65.1188 11.1261C64.4058 9.84442 63.216 9.20359 61.5495 9.20359C60.9843 9.19291 60.4235 9.30546 59.9048 9.53364C59.3861 9.76181 58.9217 10.1003 58.5429 10.5263C57.7183 11.4485 57.2607 12.649 57.2588 13.8945H65.8557ZM64.8079 0.857117L60.9121 5.13453H58.9005L61.5681 0.857117H64.8079Z" fill="#0074C7"/>
<path d="M79.8128 7.87142C80.3873 8.29562 80.8966 8.80416 81.3238 9.38036V7.38213H83.7428V21.7959C83.7428 23.8068 83.4505 25.3978 82.8691 26.5595C81.7871 28.7124 79.7392 29.7878 76.7254 29.7857C75.2362 29.8373 73.7655 29.4384 72.5 28.6398C71.3558 27.8758 70.7163 26.6794 70.5816 25.0505H73.2493C73.3277 25.6633 73.5905 26.2365 74.0017 26.692C74.5925 27.2855 75.5252 27.5822 76.8 27.5822C78.8023 27.5822 80.1123 26.8615 80.73 25.4199C81.0969 24.5781 81.2658 23.0639 81.2368 20.8773C80.7695 21.6326 80.1199 22.2542 79.3495 22.683C78.142 23.2307 76.8026 23.4058 75.4978 23.1863C74.1931 22.9669 72.9808 22.3625 72.0118 21.4487C70.7474 20.2302 70.1152 18.2151 70.1152 15.4035C70.1152 12.7476 70.7516 10.6757 72.0243 9.1878C73.297 7.69991 74.8339 6.95492 76.6352 6.95281C77.7609 6.9305 78.8675 7.2504 79.8128 7.87142ZM80.1237 10.7283C79.7585 10.2734 79.2959 9.90901 78.7711 9.66285C78.2464 9.4167 77.6733 9.29526 77.0954 9.30776C75.2568 9.30776 73.9996 10.1853 73.3239 11.9405C72.9284 13.1257 72.7473 14.3738 72.7891 15.6244C72.7891 17.4112 73.1436 18.7707 73.8525 19.703C74.184 20.1525 74.6173 20.5144 75.1158 20.7578C75.6143 21.0012 76.1632 21.1191 76.716 21.1014C78.5815 21.1014 79.9009 20.2375 80.674 18.5097C81.121 17.4283 81.3392 16.2635 81.3145 15.0909C81.3207 13.1316 80.9269 11.6774 80.133 10.7283H80.1237Z" fill="#0074C7"/>
<path d="M86.9893 1.34637H89.6569V4.36424H86.9893V1.34637ZM86.9893 7.30949H89.6569V23.0933H86.9893V7.30949Z" fill="#0074C7"/>
<path d="M102.516 7.67254C103.468 8.12959 104.283 8.83693 104.876 9.72127C105.416 10.5674 105.773 11.5209 105.921 12.5182C106.105 13.672 106.182 14.841 106.151 16.0095H94.8021C94.8477 17.6237 95.2187 18.9169 95.9152 19.8892C96.6116 20.8615 97.6864 21.3487 99.1394 21.3508C99.7483 21.3777 100.356 21.2677 100.918 21.0287C101.48 20.7897 101.983 20.4275 102.392 19.9681C102.847 19.4312 103.176 18.7966 103.355 18.1119H105.936C105.832 18.7975 105.602 19.4571 105.258 20.0565C104.923 20.7059 104.49 21.2981 103.974 21.8117C103.161 22.6126 102.143 23.166 101.036 23.409C100.34 23.5749 99.6271 23.6544 98.9124 23.6457C97.9908 23.659 97.0769 23.4741 96.2307 23.103C95.3845 22.7319 94.6253 22.1832 94.003 21.4928C92.6599 20.0555 91.9883 18.0457 91.9883 15.4634C91.9883 12.9149 92.664 10.8482 94.0155 9.26354C95.3669 7.67884 97.134 6.8844 99.3166 6.88019C100.43 6.88423 101.526 7.15575 102.516 7.67254ZM103.449 13.8945C103.396 12.9297 103.145 11.9868 102.712 11.126C101.999 9.84439 100.813 9.20356 99.155 9.20356C98.5898 9.19268 98.0289 9.30513 97.5102 9.53332C96.9915 9.76151 96.5271 10.1001 96.1484 10.5262C95.3249 11.4495 94.8665 12.649 94.8612 13.8945H103.449Z" fill="#0074C7"/>
<path d="M116.601 6.94015C117.658 7.40725 118.523 8.23301 119.048 9.27615V6.95278H123.09V22.2536C123.09 24.3329 122.744 25.9018 122.054 26.9603C120.871 28.7765 118.597 29.6836 115.233 29.6815C113.201 29.6815 111.543 29.2774 110.258 28.4693C109.636 28.0893 109.117 27.5594 108.745 26.9267C108.374 26.294 108.162 25.578 108.128 24.8421H112.649C112.717 25.2511 112.916 25.626 113.215 25.9091C113.663 26.2943 114.416 26.4868 115.475 26.4868C116.97 26.4868 117.971 25.9786 118.479 24.9621C118.808 24.3118 118.973 23.2164 118.973 21.6759V20.6405C118.652 21.2401 118.215 21.7683 117.689 22.1936C116.86 22.8376 115.786 23.1533 114.468 23.1407C112.428 23.1407 110.799 22.4135 109.58 20.9593C108.361 19.5051 107.752 17.5342 107.752 15.0467C107.752 12.6518 108.339 10.6367 109.512 9.00151C110.685 7.36631 112.349 6.54976 114.505 6.55186C115.222 6.54017 115.934 6.67212 116.601 6.94015ZM118.015 18.4907C118.683 17.7457 119.017 16.5599 119.017 14.9331C119.017 13.4031 118.7 12.2382 118.068 11.4385C117.766 11.05 117.377 10.7392 116.934 10.5314C116.491 10.3235 116.006 10.2244 115.519 10.2421C114.068 10.2421 113.067 10.9377 112.515 12.3287C112.203 13.2053 112.055 14.1337 112.08 15.0656C112.065 15.9224 112.223 16.7731 112.543 17.5658C112.762 18.1916 113.174 18.7287 113.718 19.0968C114.262 19.465 114.909 19.6444 115.562 19.6082C116.027 19.6143 116.487 19.5174 116.91 19.3244C117.334 19.1314 117.711 18.8469 118.015 18.4907Z" fill="#4EB13F"/>
<path d="M135.054 6.57715L135.411 6.59924V10.9145C135.15 10.883 134.917 10.864 134.712 10.8546C134.507 10.8451 134.342 10.8388 134.218 10.8388C132.545 10.8388 131.422 11.3912 130.85 12.4961C130.531 13.1274 130.37 14.0839 130.368 15.3656V23.0775H126.187V6.94649H130.151V9.75916C130.591 8.93748 131.157 8.19168 131.827 7.54943C132.686 6.8583 133.763 6.50524 134.858 6.55505C134.924 6.55861 134.989 6.56599 135.054 6.57715Z" fill="#4EB13F"/>
<path d="M143.389 13.2727C143.956 13.2236 144.514 13.0994 145.05 12.9034C145.647 12.6445 145.945 12.2468 145.945 11.7038C145.945 11.0451 145.716 10.5884 145.258 10.3338C144.624 10.0471 143.933 9.91831 143.24 9.9581C142.248 9.9581 141.542 10.2043 141.129 10.6968C140.807 11.1287 140.603 11.6395 140.538 12.1773H136.53C136.568 10.9255 136.979 9.71476 137.709 8.70487C138.812 7.28433 140.705 6.57405 143.389 6.57405C145.004 6.54144 146.603 6.90188 148.053 7.62525C149.409 8.32605 150.087 9.64769 150.09 11.5902V18.9896C150.09 19.5031 150.099 20.125 150.118 20.8552C150.106 21.2452 150.191 21.6318 150.366 21.979C150.526 22.1967 150.741 22.3659 150.988 22.4684V23.0997H146.439C146.323 22.8029 146.236 22.4952 146.178 22.1811C146.128 21.8938 146.091 21.5687 146.063 21.2056C145.48 21.8405 144.807 22.3841 144.067 22.8187C143.137 23.3482 142.086 23.6183 141.02 23.6016C139.712 23.6485 138.434 23.1982 137.435 22.3389C136.49 21.4971 136.018 20.3154 136.021 18.7939C136.021 16.8114 136.779 15.3762 138.296 14.4881C139.126 14.004 140.348 13.6589 141.965 13.4526L143.389 13.2727ZM145.929 15.2394C145.675 15.4013 145.405 15.5377 145.124 15.6466C144.762 15.7744 144.389 15.8715 144.011 15.937L143.078 16.1138C142.416 16.2009 141.771 16.396 141.169 16.6915C140.857 16.8661 140.599 17.1267 140.426 17.4433C140.253 17.7599 140.171 18.1197 140.19 18.4814C140.19 19.2011 140.39 19.7209 140.79 20.0408C141.205 20.3687 141.719 20.5395 142.245 20.5238C143.143 20.5266 144.019 20.2476 144.754 19.7251C145.519 19.1906 145.916 18.2183 145.945 16.8083L145.929 15.2394Z" fill="#4EB13F"/>
<path d="M157.223 5.03029H153.013V1.12854H157.223V5.03029ZM153.013 6.95277H157.223V23.0838H153.013V6.95277Z" fill="#4EB13F"/>
<path d="M173.309 7.87773C174.346 8.7511 174.864 10.199 174.864 12.2214V23.0838H170.614V13.2726C170.646 12.6043 170.533 11.937 170.281 11.3186C169.877 10.4915 169.106 10.0748 167.968 10.0748C166.568 10.0748 165.609 10.682 165.089 11.8963C164.792 12.6791 164.654 13.5142 164.681 14.3522V23.0838H160.527V6.98436H164.551V9.33615C164.953 8.65816 165.463 8.05318 166.062 7.54626C167.003 6.86586 168.14 6.5217 169.295 6.56767C170.931 6.56767 172.269 7.00436 173.309 7.87773Z" fill="#4EB13F"/>
<path d="M181.207 17.932C181.294 18.6833 181.485 19.2168 181.779 19.5325C182.295 20.1007 183.255 20.3848 184.658 20.3848C185.329 20.4147 185.998 20.2883 186.614 20.0155C186.817 19.9233 186.992 19.7766 187.119 19.5911C187.246 19.4056 187.32 19.1884 187.335 18.9629C187.349 18.7375 187.303 18.5123 187.2 18.3117C187.098 18.1111 186.943 17.9427 186.754 17.8247C186.366 17.5785 184.915 17.1576 182.401 16.562C180.597 16.1074 179.326 15.5402 178.586 14.8605C177.846 14.1807 177.477 13.2137 177.479 11.9594C177.476 11.2303 177.63 10.5094 177.929 9.8465C178.228 9.18364 178.665 8.59478 179.211 8.12079C180.355 7.03697 181.977 6.49506 184.077 6.49506C186.062 6.49506 187.681 6.89702 188.933 7.70094C190.185 8.50486 190.903 9.89383 191.088 11.8679H186.934C186.904 11.4044 186.748 10.9585 186.483 10.5799C186.023 10.0096 185.243 9.72337 184.142 9.72127C183.237 9.72127 182.587 9.86332 182.208 10.1506C182.037 10.2569 181.895 10.4045 181.794 10.5802C181.693 10.7559 181.637 10.9543 181.63 11.1576C181.619 11.3752 181.673 11.591 181.784 11.7776C181.894 11.9643 182.057 12.1132 182.252 12.2056C182.666 12.4329 184.112 12.8233 186.589 13.3768C188.247 13.7724 189.491 14.3691 190.32 15.1667C190.721 15.5579 191.037 16.0299 191.248 16.5522C191.459 17.0746 191.56 17.636 191.545 18.2003C191.564 18.9457 191.415 19.6856 191.11 20.3639C190.805 21.0422 190.352 21.6409 189.785 22.1147C188.61 23.1249 186.796 23.63 184.344 23.63C181.842 23.63 179.995 23.0954 178.803 22.0263C178.224 21.5203 177.762 20.8894 177.452 20.1795C177.142 19.4697 176.992 18.6987 177.013 17.9225L181.207 17.932Z" fill="#4EB13F"/>
<path d="M195.396 10.1948C195.113 10.477 194.754 10.6678 194.364 10.743C193.974 10.8183 193.57 10.7747 193.205 10.6178C192.839 10.4608 192.527 10.1976 192.309 9.86108C192.09 9.5246 191.974 9.12998 191.976 8.72691C191.969 8.44778 192.02 8.17022 192.127 7.91311C192.235 7.656 192.395 7.42538 192.598 7.23691C192.97 6.87533 193.467 6.6759 193.982 6.68132C194.382 6.6827 194.773 6.80481 195.105 7.03215C195.437 7.25949 195.695 7.5818 195.846 7.95822C195.997 8.33463 196.035 8.74817 195.955 9.14637C195.874 9.54456 195.679 9.90947 195.393 10.1948H195.396ZM192.803 7.54312C192.573 7.7811 192.417 8.08265 192.355 8.41014C192.292 8.73763 192.326 9.07657 192.452 9.38464C192.578 9.69272 192.791 9.95629 193.063 10.1425C193.336 10.3286 193.656 10.4292 193.985 10.4316C194.204 10.4348 194.421 10.3918 194.623 10.3054C194.825 10.219 195.007 10.0911 195.157 9.92963C195.468 9.61299 195.643 9.18382 195.643 8.73638C195.643 8.28893 195.468 7.85977 195.157 7.54312C195.005 7.38134 194.822 7.25257 194.62 7.16459C194.417 7.07661 194.199 7.03124 193.979 7.03124C193.758 7.03124 193.54 7.07661 193.338 7.16459C193.135 7.25257 192.952 7.38134 192.8 7.54312H192.803ZM193.114 9.86334V7.59678H194.196C194.35 7.60262 194.501 7.64248 194.638 7.71358C194.736 7.76282 194.818 7.84021 194.873 7.93615C194.928 8.0321 194.955 8.1424 194.949 8.25339C194.956 8.33011 194.945 8.4075 194.918 8.47932C194.89 8.55115 194.847 8.6154 194.79 8.66693C194.679 8.75454 194.545 8.80721 194.405 8.81845C194.517 8.83829 194.623 8.88362 194.716 8.95103C194.785 9.01461 194.838 9.09359 194.872 9.18178C194.906 9.26997 194.92 9.36495 194.911 9.45928V9.6613C194.911 9.6834 194.911 9.7055 194.911 9.72759C194.915 9.75043 194.921 9.77273 194.93 9.79389L194.949 9.85702H194.392C194.37 9.7533 194.357 9.64756 194.355 9.54135C194.355 9.44745 194.343 9.35396 194.318 9.26355C194.304 9.22538 194.283 9.19064 194.255 9.16174C194.227 9.13284 194.193 9.11048 194.156 9.09624C194.091 9.07474 194.022 9.06305 193.954 9.06152H193.826H193.674V9.86334H193.114ZM194.181 8.04504C194.071 8.00907 193.957 7.99304 193.842 7.99769H193.674V8.6543H193.901C194.01 8.65875 194.118 8.63019 194.212 8.57222C194.251 8.53993 194.283 8.49832 194.303 8.451C194.323 8.40368 194.331 8.35209 194.327 8.30074C194.331 8.24655 194.317 8.19254 194.289 8.14656C194.26 8.10059 194.218 8.06503 194.168 8.04504H194.181Z" fill="#4EB13F"/>
</g>
<defs>
<clipPath id="clip0_2750:4240">
<rect width="196" height="28.9286" fill="white" transform="translate(0 0.857117)"/>
</clipPath>
</defs>
</svg>
